# xmcd
#
# Track frame offsets: 
#        150
#        12325
#        25025
#        37188
#        52389
#        65960
#        77140
#        90566
#        104535
#        115518
#        130768
#        143394
#        160187
#        172981
#
# Disc length: 2477 seconds
#
# Revision: 0
# Processed by: cddbd v1.5.2PL0 Copyright (c) Steve Scherf et al.
# Submitted via: ExactAudioCopy v1.1
#
DISCID=b709ab0e
DTITLE=Conway Twitty - Complete Original #1 Hits Of The '60s And '70s
DYEAR=2011
DGENRE=Country
TTITLE0=As Soon As I Hang Up The Phone (With Loretta Lynn)
TTITLE1=I See The Want In Your Eyes
TTITLE2=Linda On My Mind
TTITLE3=Touch The Hand
TTITLE4=Feelin’s (With Loretta Lynn)
TTITLE5=This Time I’ve Hurt Her More Than She Loves Me
TTITLE6=After All The Good Is Gone
TTITLE7=The Games That Daddies Play
TTITLE8=I Can’t Believe She Gives It All To Me
TTITLE9=Play Guitar Play
TTITLE10=I’ve Already Loved You In My Mind
TTITLE11=Don’t Take It Away
TTITLE12=I May Never Get To Heaven
TTITLE13=Happy Birthday Darlin’
EXTD=
EXTT0=
EXTT1=
EXTT2=
EXTT3=
EXTT4=
EXTT5=
EXTT6=
EXTT7=
EXTT8=
EXTT9=
EXTT10=
EXTT11=
EXTT12=
EXTT13=
PLAYORDER=
